<?xml version="1.0" encoding="UTF-8"?>
<svg version="1.1" xmlns="http://www.w3.org/2000/svg" width="504" height="482">
<path d="M0 0 C166.32 0 332.64 0 504 0 C504 159.06 504 318.12 504 482 C337.68 482 171.36 482 0 482 C0 322.94 0 163.88 0 0 Z " fill="#021F20" transform="translate(0,0)"/>
<path d="M0 0 C25.08 0 50.16 0 76 0 C84.98407253 12.35309973 84.98407253 12.35309973 87.9296875 16.83203125 C88.57421875 17.80720703 89.21875 18.78238281 89.8828125 19.78710938 C90.86894531 21.28467773 90.86894531 21.28467773 91.875 22.8125 C96.15739764 29.27939276 100.44415245 35.72219651 105 42 C110.26069456 49.25122763 115.16960286 56.72829361 120.1171875 64.1953125 C123.66064746 69.53055976 127.2389993 74.81591795 131 80 C135.51099028 86.21785146 139.757101 92.59675949 144 99 C148.96253722 106.48696579 153.99738141 113.87757114 159.265625 121.15234375 C165.30654561 129.57576262 171.02611044 138.23244615 176.83935547 146.81347656 C180.13444838 151.67308704 183.44140238 156.52457775 186.75 161.375 C187.36286865 162.2736377 187.9757373 163.17227539 188.60717773 164.09814453 C196.99540581 176.39461333 205.39898661 188.6804484 213.83691406 200.94287109 C216.84352949 205.31365947 219.8425955 209.6895486 222.8371582 214.06860352 C223.94195186 215.68402563 225.04725446 217.29909981 226.15307617 218.91381836 C228.77332685 222.74023476 231.38817756 226.57001639 233.98828125 230.41015625 C236.6252409 234.29736355 239.29492425 238.15989654 242 242 C242.67289063 242.95648438 243.34578125 243.91296875 244.0390625 244.8984375 C251.45044105 254.81077507 261.39913917 261.77069642 273 266 C273.99902344 266.36480469 274.99804688 266.72960937 276.02734375 267.10546875 C281.4814294 268.605176 287.13676647 268.3686068 292.75 268.375 C293.86632812 268.39949219 294.98265625 268.42398437 296.1328125 268.44921875 C303.86467832 268.47625325 309.95197177 267.15279336 317 264 C318.03253906 263.54238281 319.06507813 263.08476562 320.12890625 262.61328125 C333.81988582 255.29530983 344.55581625 243.68094495 350 229 C353.99067228 213.97842571 354.65178056 195.84992472 347 182 C346.54238281 181.11570313 346.08476562 180.23140625 345.61328125 179.3203125 C337.77302507 165.18637122 325.73186 155.79700275 310.5 150.65625 C304.29067793 149.02630296 298.37883953 148.84685806 292 148.875 C291.1234375 148.87113281 290.246875 148.86726562 289.34375 148.86328125 C284.78193451 148.87015145 280.48822972 149.06987345 276 150 C269.19288738 141.30287642 262.63070489 132.4506034 256.21484375 123.4609375 C254.15008387 120.57289124 252.04297506 117.7283841 249.87890625 114.9140625 C249.40195312 114.28234131 248.925 113.65062012 248.43359375 112.99975586 C247.54314245 111.82279362 246.63883165 110.65614414 245.71875 109.50219727 C243.80267396 106.93754845 242.91612663 105.59594234 243.37109375 102.36328125 C248.48340972 94.94613218 257.79044375 93.86281096 266 92 C266.97453125 91.77054687 267.9490625 91.54109375 268.953125 91.3046875 C300.1788705 85.24723414 332.90637269 92.65454484 359.15234375 110.2421875 C385.46430383 128.68396282 404.65253586 156.31416509 411 188 C413.88620253 205.49163316 413.30248572 224.80876359 409 242 C408.74476563 243.07121094 408.48953125 244.14242187 408.2265625 245.24609375 C400.16291665 274.87444385 379.34394037 301.44102975 352.93457031 316.90917969 C334.18959419 327.47865891 315.30789707 333.1844355 293.76953125 333.24023438 C291.53346326 333.24985601 289.29834981 333.28089788 287.0625 333.3125 C274.48988628 333.4058597 262.50680006 331.72320689 250.625 327.375 C249.58037598 326.99649902 249.58037598 326.99649902 248.51464844 326.61035156 C234.95607959 321.49929984 223.04306079 314.32300289 212 305 C211.05640625 304.22011719 210.1128125 303.44023437 209.140625 302.63671875 C198.11214871 293.11920602 190.23732953 281.68161312 182.61914062 269.38110352 C177.54895923 261.1990088 172.11864942 253.28790044 166.64111328 245.375 C163.91282139 241.4266478 161.2075704 237.46257633 158.5 233.5 C157.41677754 231.91659081 156.33344419 230.33325748 155.25 228.75 C126 186 126 186 96.75 143.25 C96.2135083 142.46592773 95.6770166 141.68185547 95.12426758 140.87402344 C94.0432589 139.29402518 92.96236657 137.71394732 91.8815918 136.13378906 C89.13865005 132.12376118 86.39356761 128.11522769 83.64453125 124.109375 C80.42174403 119.41164945 77.20780479 114.70796715 74 110 C73.49178711 109.25540527 72.98357422 108.51081055 72.45996094 107.74365234 C71.03052134 105.64512326 69.60783683 103.54219729 68.1875 101.4375 C67.76057861 100.81198242 67.33365723 100.18646484 66.89379883 99.54199219 C64 95.23014084 64 95.23014084 64 93 C63.34 93 62.68 93 62 93 C62 172.2 62 251.4 62 333 C41.54 333 21.08 333 0 333 C0 223.11 0 113.22 0 0 Z " fill="#FD8133" transform="translate(46,74)"/>
<path d="M0 0 C1.59751076 0.00367303 3.19504342 0.00159672 4.7925415 -0.00575256 C9.10368226 -0.00946391 13.41006481 0.06662623 17.72010469 0.15770888 C22.23351287 0.23930787 26.7470459 0.24663775 31.26107788 0.26203918 C39.79703873 0.30235044 48.33081973 0.4088925 56.86582315 0.53958255 C66.58744732 0.68519174 76.30917893 0.75644034 86.03162313 0.82162321 C106.02018015 0.95729076 126.00677862 1.18575773 145.99365234 1.47583008 C145.03668566 2.92714259 144.07762535 4.37707476 143.11767578 5.82641602 C142.58382263 6.63399353 142.04996948 7.44157104 141.49993896 8.27362061 C139.90361066 10.60747213 138.19005849 12.67607493 136.24365234 14.72583008 C133.05403527 18.21749422 130.10254412 21.83668858 127.24365234 25.60083008 C123.57879963 30.4254733 119.85216909 35.19106814 116.05615234 39.91333008 C111.57522753 45.4890304 107.1332767 51.09290544 102.73413086 56.73339844 C101.49393047 58.31941246 100.24389475 59.89772 98.99365234 61.47583008 C98.28003036 62.52015198 97.56640839 63.56447388 96.8311615 64.64044189 C94.5703902 67.32339719 94.09623096 67.45774142 90.37355042 68.11419678 C88.95522488 68.0945953 87.53711341 68.04205485 86.12084961 67.96313477 C85.34281479 67.94485123 84.56477997 67.92656769 83.76316833 67.9077301 C82.07737496 67.86600809 80.39186255 67.8113598 78.70685005 67.74523163 C76.02628463 67.64646061 73.3488356 67.59589008 70.66673279 67.55987549 C63.04498057 67.45380625 55.42679078 67.30137068 47.80932617 67.02026367 C25.9311388 64.99190029 25.9311388 64.99190029 6.46337891 72.33911133 C3.27595918 75.98976068 1.05052835 79.87497969 -0.92840576 84.28198242 C-2.59133881 87.6664151 -4.87404096 90.17113669 -7.38134766 92.97583008 C-10.16586771 95.85783547 -10.16586771 95.85783547 -11.00634766 99.47583008 C-12.63188049 101.18263955 -14.2975076 102.85243203 -16.00634766 104.47583008 C-14.36526155 109.78024387 -10.99500221 113.7962285 -7.69384766 118.16333008 C-6.43001099 119.85542937 -5.16701144 121.54815418 -3.90478516 123.24145508 C-3.25993164 124.10448242 -2.61507812 124.96750977 -1.95068359 125.85668945 C1.13445835 130.01256624 4.15922349 134.21137285 7.18115234 138.41333008 C11.53496516 144.48308862 11.53496516 144.48308862 15.99365234 150.47583008 C17.18087891 150.23606445 17.18087891 150.23606445 18.39208984 149.99145508 C36.50208267 147.39870122 53.30203416 149.97747782 68.65380859 160.25708008 C79.31995089 168.30202202 86.14752661 178.09834828 90.99365234 190.47583008 C91.37005859 191.35368164 91.74646484 192.2315332 92.13427734 193.13598633 C96.33818664 209.47390653 93.21818124 227.94913646 85.00927734 242.36645508 C76.5237295 255.45656377 63.36262107 266.01442895 48.12744141 270.09423828 C29.86235859 273.36063696 12.65825461 270.65405306 -2.62353516 260.20629883 C-3.80302734 259.3497168 -3.80302734 259.3497168 -5.00634766 258.47583008 C-5.62767578 258.03883789 -6.24900391 257.6018457 -6.88916016 257.15161133 C-15.56249033 250.43482308 -21.82125105 239.96006037 -27.75634766 230.88989258 C-30.54876209 226.62656611 -33.4370549 222.42902003 -36.31884766 218.22583008 C-36.87934814 217.40775879 -37.43984863 216.5896875 -38.01733398 215.74682617 C-41.95593905 210.00134989 -45.90222092 204.26115654 -49.8503418 198.5222168 C-58.73864745 185.59928776 -67.57710063 172.64227917 -76.41064453 159.68188477 C-86.24336664 145.25751482 -96.108914 130.85586895 -106.00634766 116.47583008 C-101.89997172 109.86349112 -97.17673096 103.90402186 -92.23999023 97.90551758 C-88.22001089 93.00720918 -84.33016556 88.02842151 -80.50634766 82.97583008 C-75.70685779 76.64334073 -70.77697454 70.43786517 -65.74511719 64.28881836 C-60.40382562 57.75805914 -55.19743086 51.12619289 -50.00634766 44.47583008 C-43.73787506 36.44520998 -37.42106667 28.46301548 -30.94824219 20.59545898 C-30.2016333 19.68352783 -30.2016333 19.68352783 -29.43994141 18.75317383 C-28.92920767 18.1470888 -28.41847393 17.54100378 -27.89226341 16.91655254 C-25.8910416 14.41857871 -25.8910416 14.41857871 -24.04625893 11.26625538 C-17.69034912 1.17845943 -11.68590598 -0.37855193 0 0 Z " fill="#727272" transform="translate(306.00634765625,72.524169921875)"/>
<path d="M0 0 C3.09923054 3.09923054 5.19295951 5.56183659 7.5390625 9.1484375 C8.19648437 10.14617187 8.85390625 11.14390625 9.53125 12.171875 C10.2221875 13.22890625 10.913125 14.2859375 11.625 15.375 C18.16389517 25.29005014 18.16389517 25.29005014 25 35 C30.25294386 42.24054423 35.15513664 49.7061856 40.09521484 57.16235352 C44.53144387 63.84201679 49.06183456 70.42587082 53.7890625 76.90234375 C54.51867187 77.92457031 55.24828125 78.94679688 56 80 C56.49600507 80.63037153 56.99201015 81.26074305 57.50304568 81.91021675 C61.85836405 87.77615376 62.85930248 92.05329705 62.7215271 99.26954651 C62.72665365 100.265456 62.7317802 101.2613655 62.7370621 102.28745407 C62.74689782 105.60449843 62.7140238 108.91969741 62.68115234 112.23657227 C62.67945891 114.62210548 62.68041183 117.00764182 62.68380737 119.39317322 C62.6853484 125.18546452 62.65940026 130.97715733 62.62118141 136.76931203 C62.57818048 143.51268023 62.56930098 150.25596504 62.56245239 156.99945115 C62.54934131 169.02393005 62.50946822 181.04816384 62.45263672 193.07250977 C62.39750879 204.74860412 62.35506468 216.42463175 62.32958984 228.10083008 C62.3280135 228.8213185 62.32643716 229.54180691 62.32481305 230.28412832 C62.31698247 233.89883743 62.3094003 237.51354702 62.30194163 241.12825692 C62.2398057 271.08571894 62.12923042 301.04273076 62 331 C41.54 331 21.08 331 0 331 C0 221.77 0 112.54 0 0 Z " fill="#FEA872" transform="translate(46,76)"/>
<path d="M0 0 C1.50389972 1.9047325 2.88293164 3.81182611 4.25 5.8125 C5.14690998 7.09742177 6.04543935 8.3812142 6.9453125 9.6640625 C7.43290039 10.36047852 7.92048828 11.05689453 8.42285156 11.77441406 C11.26651652 15.78723909 14.19918317 19.73439288 17.125 23.6875 C18.31789435 25.3019459 19.51060706 26.91652604 20.703125 28.53125 C21.26580078 29.29308594 21.82847656 30.05492187 22.40820312 30.83984375 C25.6284223 35.20985898 28.8177988 39.60223747 32 44 C32.79148437 43.84015625 33.58296875 43.6803125 34.3984375 43.515625 C52.50843032 40.92287115 69.30838182 43.50164774 84.66015625 53.78125 C95.32629854 61.82619195 102.15387426 71.6225182 107 84 C107.37640625 84.87785156 107.7528125 85.75570312 108.140625 86.66015625 C112.34453429 102.99807646 109.2245289 121.47330639 101.015625 135.890625 C92.53007715 148.98073369 79.36896873 159.53859887 64.13378906 163.6184082 C45.86870625 166.88480688 28.66460227 164.17822298 13.3828125 153.73046875 C12.59648437 153.15941406 11.81015625 152.58835937 11 152 C10.37867188 151.56300781 9.75734375 151.12601563 9.1171875 150.67578125 C0.44385733 143.958993 -5.8149034 133.48423029 -11.75 124.4140625 C-14.54241444 120.15073603 -17.43070725 115.95318995 -20.3125 111.75 C-21.15325073 110.52289307 -21.15325073 110.52289307 -22.01098633 109.27099609 C-25.06129466 104.82133083 -28.11565711 100.37445615 -31.1730957 95.9296875 C-32.053804 94.64889295 -32.9338557 93.36764665 -33.81323242 92.0859375 C-36.37434347 88.35455464 -38.95043688 84.63423427 -41.5390625 80.921875 C-42.73443301 79.19795689 -43.92974639 77.47399917 -45.125 75.75 C-45.69412109 74.93917969 -46.26324219 74.12835938 -46.84960938 73.29296875 C-47.37619141 72.53113281 -47.90277344 71.76929688 -48.4453125 70.984375 C-48.91469238 70.31116211 -49.38407227 69.63794922 -49.86767578 68.94433594 C-51.06341769 66.89110425 -51.74325689 65.36506759 -52 63 C-50.37767076 60.59099413 -48.75943843 58.50142477 -46.875 56.3125 C-45.75459746 54.96513009 -44.63617707 53.61610997 -43.51953125 52.265625 C-42.64482178 51.2147168 -42.64482178 51.2147168 -41.75244141 50.14257812 C-38.92701062 46.6881367 -36.24962513 43.12484613 -33.5625 39.5625 C-28.70963922 33.16349181 -23.71105732 26.90406378 -18.6159668 20.69677734 C-14.52201094 15.69214696 -10.62017313 10.57476513 -6.8046875 5.35546875 C-2.70149254 0 -2.70149254 0 0 0 Z " fill="#021F20" transform="translate(290,179)"/>
<path d="M0 0 C0.33 0 0.66 0 1 0 C1 109.89 1 219.78 1 333 C21.46 333 41.92 333 63 333 C63 253.8 63 174.6 63 93 C63.66 93 64.32 93 65 93 C66.62616776 95.40902547 68.14172464 97.81708081 69.625 100.3125 C73.11082802 106.14649834 76.88627033 111.64652694 80.91650391 117.11938477 C84.38643839 121.9168721 87.61929498 126.86829698 90.875 131.8125 C95.15739764 138.27939276 99.44415245 144.72219651 104 151 C109.26069456 158.25122763 114.16960286 165.72829361 119.1171875 173.1953125 C122.66064746 178.53055976 126.2389993 183.81591795 130 189 C134.28826608 194.9313646 138.42389745 200.95982238 142.50976562 207.0324707 C143.60874855 208.66338253 144.71448318 210.28973817 145.8203125 211.91601562 C146.490625 212.91697266 147.1609375 213.91792969 147.8515625 214.94921875 C148.45822754 215.84987061 149.06489258 216.75052246 149.68994141 217.6784668 C151 220 151 220 151 223 C149.47658909 225.17116043 147.92560695 227.20172226 146.25 229.25 C145.51052124 230.17220337 145.51052124 230.17220337 144.75610352 231.11303711 C143.17694789 233.08044849 141.58849756 235.04012767 140 237 C137.97567055 239.51803698 135.95651686 242.04020242 133.9375 244.5625 C133.43299316 245.19148193 132.92848633 245.82046387 132.40869141 246.46850586 C128.43762513 251.42753654 124.55258992 256.44717193 120.69140625 261.4921875 C112.0003195 272.84098816 103.16923213 284.08350213 94.32666016 295.31445312 C92.04913796 298.20808825 89.77474192 301.10417911 87.5 304 C84.70388466 307.55919165 81.90735425 311.1180546 79.109375 314.67578125 C78.39104492 315.5894043 78.39104492 315.5894043 77.65820312 316.52148438 C76.76125811 317.6622591 75.8641413 318.8028988 74.96679688 319.94335938 C71.29370955 324.61561728 67.64894967 329.30849329 64 334 C42.88 334 21.76 334 0 334 C0 223.78 0 113.56 0 0 Z " fill="#777370" transform="translate(45,74)"/>
<path d="M0 0 C52.8 0 105.6 0 160 0 C153.32673267 10.00990099 153.32673267 10.00990099 150.25 13.25 C147.06038293 16.74166414 144.10889177 20.3608585 141.25 24.125 C137.5851457 28.94964531 133.8584447 33.71517858 130.0625 38.4375 C125.55665688 44.04580571 121.08837289 49.68157479 116.65258789 55.34545898 C115.43647204 56.8980808 114.21829058 58.44908403 113 60 C112.45752625 60.87565109 111.91505249 61.75130219 111.35614014 62.65348816 C108.62496396 65.37350347 107.02309902 65.58511036 103.23503113 65.62210083 C102.47330093 65.60412445 101.71157074 65.58614807 100.92675781 65.56762695 C100.11662735 65.56835709 99.30649689 65.56908722 98.47181702 65.56983948 C95.79823481 65.56636033 93.1264022 65.52748563 90.453125 65.48828125 C88.59797111 65.47895424 86.74280489 65.4718376 84.88763428 65.46684265 C80.00797443 65.44776395 75.1290603 65.39865566 70.24969482 65.34332275 C65.26943042 65.29214906 60.28904536 65.26933263 55.30859375 65.24414062 C45.5387351 65.19053776 35.76942959 65.10521438 26 65 C23.69609322 60.49223048 21.50015187 56.00080165 19.6340332 51.29003906 C19.21712723 50.24245422 18.80022125 49.19486938 18.37068176 48.11553955 C17.93511459 47.01006775 17.49954742 45.90459595 17.05078125 44.765625 C16.59269577 43.61004089 16.13461029 42.45445679 15.66264343 41.26385498 C14.4553629 38.21530129 13.2514598 35.16544089 12.04882812 32.11505127 C11.31041661 30.24472297 10.5696088 28.37536303 9.82788086 26.50634766 C8.3993315 22.90639378 6.97438473 19.30503723 5.55078125 15.703125 C5.10914139 14.58955627 4.66750153 13.47598755 4.21247864 12.32867432 C3.80502914 11.29369812 3.39757965 10.25872192 2.9777832 9.19238281 C2.61900589 8.28385559 2.26022858 7.37532837 1.89057922 6.43927002 C1 4 1 4 0 0 Z " fill="#A5A5A5" transform="translate(292,74)"/>
<path d="M0 0 C3.10013074 3.10013074 5.1190369 5.47378763 7.4375 9.0625 C10.96075522 14.43872648 14.55124745 19.76201663 18.1875 25.0625 C18.74163574 25.87138672 19.29577148 26.68027344 19.86669922 27.51367188 C22.13049329 30.81755247 24.39592048 34.12030698 26.66308594 37.421875 C34.53578709 48.88670094 42.31419953 60.408982 50 72 C48.25354012 75.64404637 46.11068074 78.61490099 43.625 81.8125 C43.18800781 82.37582031 42.75101563 82.93914062 42.30078125 83.51953125 C38.4057698 88.52270088 34.43757895 93.46708554 30.46557617 98.40917969 C27.24273641 102.42546887 24.06745955 106.47347029 20.9375 110.5625 C17.36843125 115.21955906 13.7932092 119.87122182 10.1875 124.5 C9.7433374 125.07564697 9.2991748 125.65129395 8.84155273 126.24438477 C8.41302002 126.79280029 7.9844873 127.34121582 7.54296875 127.90625 C7.17196045 128.38384766 6.80095215 128.86144531 6.41870117 129.35351562 C4.40822654 131.68678717 2.17786184 133.82213816 0 136 C0 91.12 0 46.24 0 0 Z " fill="#031F20" transform="translate(109,168)"/>
</svg>
