<svg width="850" height="1275" viewBox="0 0 850 1275" fill="none" xmlns="http://www.w3.org/2000/svg">
<path d="M0 1062.58C0 945.27 95.1032 850.167 212.417 850.167H424.833V1062.58C424.833 1179.9 329.73 1275 212.417 1275C95.1032 1275 0 1179.9 0 1062.58Z" fill="#24CB71"/>
<path d="M424.833 0.5V425.333H637.25C754.564 425.333 849.667 330.23 849.667 212.917C849.667 95.6032 754.564 0.5 637.25 0.5H424.833Z" fill="#FF7237"/>
<path d="M635.481 850.167C752.795 850.167 847.897 755.065 847.897 637.75C847.897 520.436 752.795 425.333 635.481 425.333C518.166 425.333 423.064 520.436 423.064 637.75C423.064 755.065 518.166 850.167 635.481 850.167Z" fill="#00B6FF"/>
<path d="M0 212.917C0 330.23 95.1032 425.333 212.417 425.333H424.833V0.5H212.417C95.1032 0.5 0 95.6032 0 212.917Z" fill="#FF3737"/>
<path d="M0 637.75C0 755.064 95.1032 850.167 212.417 850.167H424.833V425.333H212.417C95.1032 425.333 0 520.437 0 637.75Z" fill="#874FFF"/>
</svg>
